<?xml version="1.0" standalone="no"?>
<!DOCTYPE svg PUBLIC "-//W3C//DTD SVG 20010904//EN"
 "http://www.w3.org/TR/2001/REC-SVG-20010904/DTD/svg10.dtd">
<svg version="1.0" xmlns="http://www.w3.org/2000/svg"
 width="225.000000pt" height="225.000000pt" viewBox="0 0 225.000000 225.000000"
 preserveAspectRatio="xMidYMid meet">

<g transform="translate(0.000000,225.000000) scale(0.100000,-0.100000)"
fill="pink" stroke="none">
<path d="M1003 2239 c-438 -51 -802 -347 -942 -767 -41 -121 -53 -202 -53
-347 0 -194 28 -313 116 -500 43 -91 149 -237 225 -310 l41 -39 0 104 c0 128
16 168 92 241 116 111 406 203 643 203 237 0 527 -92 643 -203 76 -73 91 -113
92 -241 l1 -105 67 71 c426 449 420 1134 -13 1569 -179 181 -420 296 -678 324
-107 12 -130 12 -234 0z m260 -552 c65 -30 140 -96 172 -150 36 -64 51 -162
36 -243 -7 -37 -20 -83 -30 -103 -29 -55 -99 -119 -171 -154 -56 -28 -75 -32
-145 -32 -70 0 -89 4 -145 32 -72 35 -142 99 -171 154 -10 20 -23 66 -30 103
-15 81 0 179 36 243 45 75 146 151 232 173 58 14 158 4 216 -23z"/>
</g>
</svg>
